<svg width="32" height="32" viewBox="0 0 32 32" fill="none" xmlns="http://www.w3.org/2000/svg">
<path d="M23.352 6.40002H8.64801C8.35175 6.40107 8.05859 6.46047 7.78528 6.57481C7.51197 6.68915 7.26386 6.85621 7.05511 7.06644C6.84637 7.27668 6.68107 7.52597 6.56867 7.80008C6.45627 8.07419 6.39896 8.36776 6.40001 8.66402V23.336C6.39896 23.6323 6.45627 23.9259 6.56867 24.2C6.68107 24.4741 6.84637 24.7234 7.05511 24.9336C7.26386 25.1438 7.51197 25.3109 7.78528 25.4252C8.05859 25.5396 8.35175 25.599 8.64801 25.6H21.088L20.512 23.568L21.912 25.032L23.24 26.256L25.6 28.344V8.66402C25.6011 8.36776 25.5437 8.07419 25.4313 7.80008C25.3189 7.52597 25.1536 7.27668 24.9449 7.06644C24.7362 6.85621 24.488 6.68915 24.2147 6.57481C23.9414 6.46047 23.6483 6.40107 23.352 6.40002ZM19.112 20.728C19.112 20.728 18.72 20.256 18.392 19.84C19.1866 19.6533 19.8894 19.1913 20.376 18.536C19.9803 18.7987 19.5563 19.0161 19.112 19.184C18.5991 19.4039 18.0621 19.5623 17.512 19.656C16.571 19.8334 15.6051 19.8334 14.664 19.656C14.1173 19.5483 13.5817 19.3903 13.064 19.184C12.7885 19.0816 12.521 18.9586 12.264 18.816L12.16 18.76H12.12C11.92 18.648 11.808 18.568 11.808 18.568C12.2775 19.2105 12.9566 19.6688 13.728 19.864L13 20.776C12.348 20.793 11.7017 20.6502 11.1174 20.3602C10.5332 20.0702 10.0287 19.6417 9.64801 19.112C9.6886 16.8849 10.2358 14.6962 11.248 12.712C12.1305 12.0181 13.2068 11.6155 14.328 11.56L14.44 11.696C13.384 11.9558 12.398 12.4447 11.552 13.128C11.552 13.128 11.792 13 12.2 12.808C12.9883 12.4502 13.8278 12.218 14.688 12.12H14.88C15.616 12.0314 16.36 12.0314 17.096 12.12C18.255 12.2514 19.3772 12.6073 20.4 13.168C19.5965 12.5161 18.6641 12.0417 17.664 11.776L17.816 11.6C18.9396 11.656 20.0183 12.0584 20.904 12.752C21.9144 14.7369 22.4615 16.9252 22.504 19.152C22.1098 19.6712 21.5947 20.0862 21.0036 20.3609C20.4124 20.6356 19.763 20.7616 19.112 20.728Z" fill="#6B6B7C"/>
<path d="M18.016 18.04C18.6346 18.04 19.136 17.4956 19.136 16.824C19.136 16.1525 18.6346 15.608 18.016 15.608C17.3974 15.608 16.896 16.1525 16.896 16.824C16.896 17.4956 17.3974 18.04 18.016 18.04Z" fill="#6B6B7C"/>
<path d="M14.016 15.608C13.7692 15.5871 13.5219 15.6414 13.3066 15.764C13.0914 15.8866 12.9184 16.0715 12.8105 16.2945C12.7027 16.5175 12.6649 16.7679 12.7024 17.0127C12.7399 17.2576 12.8507 17.4853 13.0203 17.6658C13.1899 17.8463 13.4103 17.9711 13.6523 18.0237C13.8943 18.0763 14.1466 18.0543 14.3759 17.9605C14.6051 17.8667 14.8005 17.7055 14.9362 17.4983C15.0719 17.2911 15.1416 17.0477 15.136 16.8C15.1426 16.4943 15.0289 16.1982 14.8195 15.9753C14.6101 15.7524 14.3216 15.6205 14.016 15.608Z" fill="#6B6B7C"/>
</svg>
