<svg width="32" height="32" viewBox="0 0 32 32" fill="none" xmlns="http://www.w3.org/2000/svg">
<path d="M10.0634 29.0008C22.1389 29.0008 28.7437 18.9963 28.7437 10.3205C28.7437 10.0363 28.7437 9.75346 28.7245 9.47183C30.0094 8.5424 31.1186 7.39171 32 6.07346C30.8018 6.6044 29.5306 6.95252 28.2291 7.1064C29.5994 6.28615 30.6256 4.99502 31.1155 3.47502C29.8268 4.23971 28.4167 4.77871 26.9466 5.06865C25.7052 3.74858 23.9714 2.99915 22.1595 2.99915C18.5544 2.99915 15.5879 5.96565 15.5879 9.57065C15.5879 10.0708 15.6451 10.5693 15.7581 11.0565C10.4819 10.792 5.55931 8.2964 2.22719 4.19696C0.494437 7.17983 1.391 11.0455 4.25981 12.9611C3.21512 12.9301 2.19287 12.6483 1.28 12.1393V12.2225C1.28087 15.3359 3.49544 18.042 6.54719 18.6584C5.58069 18.922 4.56638 18.9605 3.58275 18.771C4.44069 21.4388 6.91469 23.2778 9.7165 23.3304C7.39213 25.1571 4.51919 26.1493 1.56288 26.1464C1.0405 26.1454 0.518625 26.1138 0 26.0516C3.00213 27.9782 6.49625 29.0004 10.0634 28.9956" fill="#6B6B7C"/>
</svg>
