<svg width="32" height="32" viewBox="0 0 32 32" fill="none" xmlns="http://www.w3.org/2000/svg">
<path d="M24 3H8C6.67392 3 5.40215 3.52678 4.46447 4.46447C3.52678 5.40215 3 6.67392 3 8V24C3 25.3261 3.52678 26.5979 4.46447 27.5355C5.40215 28.4732 6.67392 29 8 29H24C25.3261 29 26.5979 28.4732 27.5355 27.5355C28.4732 26.5979 29 25.3261 29 24V8C29 6.67392 28.4732 5.40215 27.5355 4.46447C26.5979 3.52678 25.3261 3 24 3ZM27 24C27 24.7956 26.6839 25.5587 26.1213 26.1213C25.5587 26.6839 24.7956 27 24 27H8C7.20435 27 6.44129 26.6839 5.87868 26.1213C5.31607 25.5587 5 24.7956 5 24V8C5 7.20435 5.31607 6.44129 5.87868 5.87868C6.44129 5.31607 7.20435 5 8 5H24C24.7956 5 25.5587 5.31607 26.1213 5.87868C26.6839 6.44129 27 7.20435 27 8V24Z" fill="#6B6B7C"/>
<path d="M22 12C21.2044 12 20.4413 11.6839 19.8787 11.1213C19.3161 10.5587 19 9.79565 19 9C19 8.73478 18.8946 8.48043 18.7071 8.29289C18.5196 8.10536 18.2652 8 18 8C17.7348 8 17.4804 8.10536 17.2929 8.29289C17.1054 8.48043 17 8.73478 17 9V19C17 19.5933 16.8241 20.1734 16.4944 20.6667C16.1648 21.1601 15.6962 21.5446 15.1481 21.7716C14.5999 21.9987 13.9967 22.0581 13.4147 21.9424C12.8328 21.8266 12.2982 21.5409 11.8787 21.1213C11.4591 20.7018 11.1734 20.1672 11.0576 19.5853C10.9419 19.0033 11.0013 18.4001 11.2284 17.8519C11.4554 17.3038 11.8399 16.8352 12.3333 16.5056C12.8266 16.1759 13.4067 16 14 16C14.2652 16 14.5196 15.8946 14.7071 15.7071C14.8946 15.5196 15 15.2652 15 15C15 14.7348 14.8946 14.4804 14.7071 14.2929C14.5196 14.1054 14.2652 14 14 14C13.0111 14 12.0444 14.2932 11.2222 14.8427C10.3999 15.3921 9.75904 16.173 9.3806 17.0866C9.00217 18.0002 8.90315 19.0055 9.09608 19.9755C9.289 20.9454 9.76521 21.8363 10.4645 22.5355C11.1637 23.2348 12.0546 23.711 13.0246 23.9039C13.9945 24.0969 14.9998 23.9978 15.9134 23.6194C16.8271 23.241 17.6079 22.6001 18.1574 21.7779C18.7068 20.9556 19 19.9889 19 19V13C19.8627 13.6544 20.9172 14.0059 22 14C22.2652 14 22.5196 13.8946 22.7071 13.7071C22.8946 13.5196 23 13.2652 23 13C23 12.7348 22.8946 12.4804 22.7071 12.2929C22.5196 12.1054 22.2652 12 22 12Z" fill="#6B6B7C"/>
</svg>
