<svg width="218" height="75" viewBox="0 0 218 75" fill="none" xmlns="http://www.w3.org/2000/svg">
<path d="M46.2565 25.2027H52.7764L54.3695 19.0394L68.1617 9.85447L69.6368 4.41219H63.1021L62.4088 7.14191L52.2011 13.8546L45.7845 7.39943L46.5663 4.39502H40.0463L38.7187 9.54544L47.8939 18.8849L46.2565 25.2027ZM101.115 16.756L98.9471 25.1856H128.449L129.924 19.7089H107.458L117.327 14.8847L109.612 9.8888H132.432L133.907 4.39502H104.405L102.178 12.6014L105.349 14.713L101.115 16.756ZM14.4386 4.41219H7.97766L2.62305 25.2027H9.08398L14.4386 4.41219ZM36.8306 4.41219H30.9302L28.9536 12.0176H14.2026L12.7275 17.5114H27.4785L25.5018 25.1684H32.125L37.4354 4.41219H36.8306ZM76.9091 9.8888H93.4007L92.9434 11.6056L87.397 14.3182H77.4549L75.9798 19.7948H88.3853L98.5488 14.816L101.307 4.41219H71.8052L66.4506 25.2027H72.9558L76.9091 9.8888ZM133.302 18.2497L131.503 25.2027H138.008C138.008 25.2027 139.114 20.8764 139.38 19.9321C137.418 19.2969 135.382 18.7475 133.302 18.2497ZM154.234 19.5373L163.615 15.0907L166.359 4.41219H136.857L134.054 15.3311C140.923 15.5595 147.724 16.9771 154.234 19.5373ZM141.961 9.8888H158.438C158.231 10.6957 158.025 11.5026 157.936 11.8288L152.877 14.3182H140.81C141.061 13.3911 141.813 10.4725 141.961 9.8888Z" fill="#E31837"/>
<path d="M195.241 66.0971C190.816 50.8175 184.119 39.9673 176.522 32.2932C183.323 24.5847 187.969 14.1293 188.81 0C188.81 0 186.037 14.0607 171.109 27.4689C148.982 9.90598 122.431 14.9019 122.431 14.9019C137.85 16.1801 152.731 22.0377 165.651 31.9155C151.696 42.2163 129.57 51.1437 94.7134 51.4356C94.7134 51.4356 144.616 60.1913 171.787 36.9457C181.007 44.995 188.945 54.8611 195.241 66.0971Z" fill="#B3B3B3"/>
<path d="M190.447 8.42953C190.45 7.61534 190.66 6.82041 191.051 6.14509C191.442 5.46976 191.996 4.94432 192.643 4.63509C193.29 4.32587 194.002 4.24671 194.687 4.40763C195.373 4.56855 196.002 4.96232 196.496 5.53924C196.99 6.11616 197.325 6.85036 197.461 7.64915C197.596 8.44795 197.525 9.27553 197.257 10.0274C196.989 10.7793 196.535 11.4218 195.953 11.8738C195.371 12.3258 194.687 12.567 193.988 12.567C193.521 12.5693 193.058 12.4637 192.627 12.2564C192.196 12.0491 191.804 11.7441 191.475 11.3592C191.145 10.9744 190.885 10.5172 190.709 10.0143C190.532 9.51136 190.443 8.97269 190.447 8.42953ZM196.953 8.42953C196.953 7.51888 196.642 6.64552 196.088 6.00159C195.535 5.35767 194.785 4.99591 194.002 4.99591C193.22 4.99591 192.47 5.35767 191.916 6.00159C191.363 6.64552 191.052 7.51888 191.052 8.42953C191.052 9.34018 191.363 10.2135 191.916 10.8575C192.47 11.5014 193.22 11.8631 194.002 11.8631C194.785 11.8631 195.535 11.5014 196.088 10.8575C196.642 10.2135 196.953 9.34018 196.953 8.42953ZM195.743 10.7472H195.168L194.047 8.58404H193.176V10.7472H192.675V6.16334H194.386C195.433 6.16334 195.773 6.60971 195.773 7.38228C195.773 8.15484 195.241 8.61838 194.533 8.63554L195.743 10.7472ZM193.884 8.18917C194.445 8.18917 195.271 8.30935 195.271 7.36511C195.271 6.42086 194.769 6.57538 194.268 6.57538H193.147V8.20634L193.884 8.18917Z" fill="white"/>
</svg>
