<svg width="195" height="59" viewBox="0 0 195 59" fill="none" xmlns="http://www.w3.org/2000/svg">
<g clip-path="url(#clip0_102_113)">
<path d="M0 41.732V0.867548H7.20257V41.7318H0V41.7321V41.732ZM25.6407 12.0863C16.4054 12.0863 10.0148 19.1626 10.0148 27.2623C10.0148 36.3016 16.9673 42.5293 25.7124 42.5293C34.0121 42.5293 41.2144 36.4168 41.2144 27.2427C41.2144 19.5286 35.2461 12.0863 25.6407 12.0863ZM25.5557 19.0113C30.3889 19.0113 33.946 22.7602 33.946 27.2882C33.946 32.0893 30.0238 35.5913 25.686 35.5913C20.5607 35.5913 17.3349 31.5429 17.3349 27.3012C17.335 22.652 20.9769 19.0113 25.5557 19.0113ZM59.3114 12.0863C50.0765 12.0863 43.6856 19.1626 43.6856 27.2623C43.6856 36.3016 50.6382 42.5293 59.3833 42.5293C67.6829 42.5293 74.8851 36.4168 74.8851 27.2427C74.8851 21.8406 72.5376 19.4437 72.5376 19.4437L74.5342 18.7613V12.9355H64.3041C64.3041 12.9355 62.086 12.0863 59.3114 12.0863ZM59.2267 19.0113C64.0596 19.0113 67.617 22.7602 67.617 27.2882C67.617 32.0893 63.6948 35.5913 59.3571 35.5913C54.2316 35.5913 51.006 31.5429 51.006 27.3012C51.0061 22.652 54.648 19.0113 59.2267 19.0113ZM67.566 43.7296C67.566 48.5304 63.6441 52.0587 59.3063 52.0587C54.1807 52.0587 50.942 47.9709 50.942 43.7296H43.6348C43.6348 52.7691 50.5871 58.9963 59.3325 58.9963C67.632 58.9963 74.8343 52.903 74.8343 43.7296H67.566ZM77.7701 41.732V12.9355H84.9731V41.732H77.7701ZM91.9672 41.732V19.3857H88.1047V12.9355H91.9672V4.09265H99.17V12.9355H103.137V19.3857H99.17V41.732H91.9672ZM86.1263 4.75682C86.1263 7.38203 83.9908 9.51028 81.3567 9.51028C78.7221 9.51028 76.5868 7.3819 76.5868 4.75682C76.5868 2.13149 78.7224 0.00323486 81.3567 0.00323486C83.9909 0.00323486 86.1263 2.13149 86.1263 4.75682ZM119.33 12.0669C110.051 12.0669 104.07 19.1466 104.07 27.5224C104.07 36.1777 110.072 42.5488 119.48 42.5488C128.257 42.5488 132.575 37.0867 132.575 37.0867L127.76 32.2816C127.76 32.2816 124.124 36.1896 119.572 36.1896C115.777 36.1896 112.742 34.0785 111.684 30.2076H134.128V28.2311C134.128 20.344 129.547 12.0669 119.33 12.0669ZM119.102 18.387C122.42 18.387 125.814 20.156 126.573 24.3818H111.488C112.085 21.4113 114.693 18.387 119.102 18.387ZM152.144 42.5526C142.839 42.5526 136.499 35.4895 136.499 27.1621C136.499 18.568 143.664 12.0615 152.114 12.0615C160.283 12.0615 164.464 17.8082 164.464 17.8082L159.439 22.7932C159.439 22.7932 156.529 19.0453 152.08 19.0453C147.149 19.0453 143.778 22.8042 143.778 27.2722C143.778 31.9899 147.364 35.6098 152.024 35.6098C156.545 35.6098 159.432 31.868 159.432 31.868L164.507 36.8501C164.507 36.8501 160.367 42.5527 152.144 42.5527L152.144 42.5526ZM167.128 41.7528V0.763673H174.331V15.8233C174.331 15.8233 177.089 12.0615 183.088 12.0615C190.63 12.0615 195 17.649 195 24.7954V41.7527H187.797V25.8803C187.797 21.0792 184.798 19.0872 181.475 19.0872C177.689 19.0872 174.331 21.2344 174.331 26.2516V41.7528H167.128Z" fill="#F0F0F1"/>
</g>
<defs>
<clipPath id="clip0_102_113">
<rect width="195" height="59" fill="white"/>
</clipPath>
</defs>
</svg>
