<svg width="166" height="166" viewBox="0 0 166 166" fill="none" xmlns="http://www.w3.org/2000/svg">
<g clip-path="url(#clip0_102_122)">
<path fill-rule="evenodd" clip-rule="evenodd" d="M83.0361 114.574C90.5001 121.451 100.523 125.623 111.426 125.623C134.841 125.623 153.793 106.525 153.793 83.0362C153.793 59.4757 134.841 40.377 111.426 40.377C100.523 40.377 90.5001 44.5478 83.0361 51.4261C74.475 59.2552 69.0598 70.5239 69.0598 83.0362C69.0607 95.5484 74.475 106.818 83.0361 114.574Z" fill="#E9B040"/>
<path fill-rule="evenodd" clip-rule="evenodd" d="M148.16 106.744C148.16 106.012 148.746 105.427 149.477 105.427C150.282 105.427 150.866 106.013 150.866 106.744C150.866 107.55 150.281 108.135 149.477 108.135C148.746 108.135 148.16 107.55 148.16 106.744ZM149.477 107.843C150.063 107.843 150.573 107.33 150.573 106.745C150.573 106.16 150.062 105.721 149.477 105.721C148.964 105.721 148.453 106.16 148.453 106.745C148.453 107.33 148.965 107.843 149.477 107.843ZM149.331 107.404H149.038V106.159H149.55C149.624 106.159 149.77 106.159 149.842 106.233C149.989 106.306 149.989 106.38 149.989 106.526C149.989 106.672 149.916 106.819 149.77 106.819L150.063 107.404H149.696L149.55 106.891H149.331V107.404V106.672H149.624C149.696 106.672 149.696 106.598 149.696 106.525C149.696 106.451 149.696 106.451 149.624 106.379H149.331V107.404Z" fill="#E9B040"/>
<path fill-rule="evenodd" clip-rule="evenodd" d="M96.7197 78.5003C96.5733 76.9639 96.2805 75.5007 95.9877 73.9635H70.0847C70.3775 72.4272 70.8167 70.964 71.2551 69.5H94.7441C94.2342 67.9596 93.6482 66.4455 92.9881 64.9632H73.0851C73.8172 63.4133 74.623 61.8993 75.4999 60.4264H90.501C89.5358 58.8637 88.46 57.372 87.2819 55.9629H78.7199C80.0443 54.3455 81.4873 52.8291 83.037 51.4261C75.5007 44.621 65.5488 40.377 54.5729 40.377C31.2311 40.377 12.2065 59.4757 12.2065 83.0362C12.2065 106.525 31.2311 125.623 54.5729 125.623C65.5488 125.623 75.4999 121.451 83.037 114.574C84.5631 113.196 85.9821 111.703 87.2819 110.109H78.7199C77.5487 108.646 76.5247 107.183 75.4999 105.573H90.501C91.4443 104.126 92.276 102.609 92.989 101.036H73.0851C72.4263 99.5728 71.7683 98.1096 71.2551 96.5715H94.7441C95.2556 95.1084 95.6225 93.5729 95.9868 92.0348C96.2796 90.5716 96.5724 89.0361 96.7188 87.498C96.8671 86.0145 96.9407 84.5245 96.9393 83.0336C96.9393 81.4998 96.8661 79.9634 96.7197 78.5003Z" fill="#CC2131"/>
<path fill-rule="evenodd" clip-rule="evenodd" d="M68.6216 95.3297C67.2316 95.6949 66.2068 95.9153 65.1828 95.9153C62.9877 95.9153 61.67 94.5245 61.67 92.0365C61.67 91.525 61.7432 91.0125 61.8164 90.4269L62.1093 88.745L62.3289 87.3542L64.3044 75.3544H68.6948L68.1824 77.9887H70.9632L70.3044 82.3791H67.5236L66.3532 89.5494C66.28 89.9163 66.28 90.135 66.28 90.2814C66.28 91.233 66.7192 91.5982 67.8164 91.5982C68.3288 91.5982 68.7671 91.5258 69.2063 91.4518L68.6216 95.3297ZM82.8175 95.1833C81.2079 95.6225 79.7447 95.8413 78.1343 95.8413C73.1583 95.8413 70.3044 93.2069 70.3044 88.013C70.3044 81.939 73.6708 77.5487 78.3531 77.5487C82.0846 77.5487 84.4994 80.0367 84.4994 83.9137C84.4994 85.2322 84.353 86.4758 83.9878 88.2318H74.8411C74.7679 88.5246 74.7679 88.671 74.7679 88.8174C74.7679 90.8661 76.1579 91.8901 78.7923 91.8901C80.475 91.8901 81.9382 91.525 83.5486 90.7938L82.8175 95.1833ZM80.1099 84.7198V83.8414C80.1099 82.3782 79.3047 81.573 77.9147 81.573C76.4507 81.573 75.4267 82.6702 74.9875 84.719L80.1099 84.7198ZM33.4987 95.5484H28.962L31.5963 78.9395L25.6696 95.5484H22.5237L22.1577 79.0127L19.3769 95.5484H14.9133L18.4985 73.9635H25.1572L25.3036 87.2819L29.7672 73.9635H37.0847L33.4987 95.5484ZM44.5487 87.7202C44.1095 87.6461 43.9631 87.6462 43.6703 87.6462C41.0359 87.6462 39.7191 88.6701 39.7191 90.2805C39.7191 91.3786 40.3779 92.1106 41.4019 92.1106C43.5971 92.1106 44.4746 90.2805 44.5487 87.7202ZM48.207 95.5484H44.2559L44.3291 93.7201C43.3043 95.1092 41.9143 95.8413 39.4995 95.8413C37.3043 95.8413 35.402 93.8665 35.402 91.0125C35.402 90.2082 35.5484 89.477 35.768 88.745C36.4991 86.0366 39.2067 84.3547 43.3775 84.2806C43.8899 84.2806 44.6942 84.2806 45.4262 84.3547C45.5718 83.7691 45.5718 83.5486 45.5718 83.1835C45.5718 82.0122 44.621 81.6462 42.499 81.6462C41.1823 81.6462 39.7183 81.8658 38.6943 82.2318L38.0355 82.3782L37.7427 82.4506L38.4015 78.4994C40.5235 77.8406 42.0598 77.5487 43.7435 77.5487C47.6946 77.5487 49.8166 79.3778 49.8166 82.7434C49.8166 83.6218 49.8898 84.2806 49.597 86.183L48.573 92.4757L48.4266 93.5737L48.3534 94.4522L48.2802 95.0378L48.207 95.5484ZM104.916 78.1343C106.232 78.1343 107.404 78.5003 109.013 79.3046L109.818 74.6215C109.378 74.4019 109.232 74.4019 108.647 74.1823L106.819 73.6699C106.233 73.5235 105.502 73.4503 104.696 73.4503C102.427 73.4503 101.11 73.5235 99.721 74.3287C98.9889 74.8411 98.0373 75.4999 97.0125 76.6703L96.4269 76.5239L91.7437 79.8162L91.9642 77.987H87.1338L84.2815 95.5476H88.8923L90.5742 86.1098C90.5742 86.1098 91.2339 84.7913 91.5259 84.3538C92.4043 83.2558 93.1354 83.2558 94.0862 83.2558H94.453C94.2995 84.371 94.2258 85.4957 94.2326 86.6213C94.2326 92.3285 97.4517 95.9145 102.428 95.9145C103.672 95.9145 104.771 95.7681 106.453 95.3288L107.259 90.3537C105.796 91.1581 104.478 91.5241 103.38 91.5241C100.673 91.5241 99.0621 89.4753 99.0621 86.2562C99.0604 81.4998 101.476 78.1343 104.916 78.1343ZM143.768 73.9635L142.745 80.1099C141.647 78.4271 140.33 77.6219 138.574 77.6219C136.158 77.6219 133.89 79.0118 132.5 81.6462V81.5739L129.573 79.817L129.866 77.9879H124.963L122.183 95.5484H126.719L128.257 86.1106C128.257 86.1106 129.427 84.7922 129.72 84.3547C130.452 83.4763 131.183 83.329 131.769 83.2567C131.257 84.7198 130.964 86.4758 130.964 88.4522C130.964 92.8426 133.232 95.7689 136.597 95.7689C138.281 95.7689 139.598 95.1833 140.841 93.7925L140.622 95.5484H144.94L148.452 73.9635H143.768ZM138.135 91.3786C136.598 91.3786 135.794 90.2082 135.794 87.939C135.794 84.4994 137.257 82.0122 139.378 82.0122C140.988 82.0122 141.794 83.2566 141.794 85.4518C141.794 88.9638 140.33 91.3786 138.135 91.3786ZM116.99 87.7202C116.55 87.6461 116.404 87.6462 116.111 87.6462C113.475 87.6462 112.158 88.6701 112.158 90.2805C112.158 91.3786 112.818 92.1106 113.842 92.1106C116.037 92.1106 116.916 90.2805 116.99 87.7202ZM120.648 95.5484H116.623L116.769 93.7201C115.745 95.1092 114.353 95.8413 111.94 95.8413C109.671 95.8413 107.696 93.9389 107.696 91.0125C107.696 86.8427 110.842 84.2815 115.818 84.2815C116.331 84.2815 117.134 84.2815 117.794 84.3555C117.94 83.7699 118.014 83.5495 118.014 83.1843C118.014 82.0131 117.063 81.6471 114.868 81.6471C113.623 81.6471 112.087 81.8667 111.063 82.2327L110.477 82.3791L110.184 82.4514L110.842 78.5003C112.965 77.8415 114.502 77.5495 116.184 77.5495C120.136 77.5495 122.184 79.3787 122.184 82.7442C122.184 83.6227 122.331 84.2815 121.966 86.1838L121.014 92.4766L120.868 93.5746L120.721 94.453L120.649 95.0386V95.5484H120.648ZM57.7921 81.7194C58.6705 81.7194 59.9141 81.7926 61.2317 82.0122L61.8905 77.9147C60.5729 77.7683 58.8169 77.5487 57.7921 77.5487C52.6706 77.5487 50.9878 80.3295 50.9878 83.5486C50.9878 85.6714 51.9386 87.2069 54.4266 88.3773C56.2557 89.2557 56.5485 89.4013 56.5485 90.2073C56.5485 91.3036 55.5978 91.9633 53.8409 91.9633C52.451 91.9633 51.1334 91.7428 49.6702 91.2313L49.1578 95.2548L49.2301 95.3288L50.1085 95.4752C50.4013 95.5476 50.7673 95.6216 51.2798 95.694C52.3769 95.768 53.3285 95.8404 53.9141 95.8404C59.0365 95.8404 61.1585 93.8657 61.1585 89.9869C61.1585 87.5729 59.9873 86.1098 57.7189 85.0858C55.7433 84.2065 55.5237 84.0619 55.5237 83.2558C55.5237 82.4514 56.4021 81.7194 57.7921 81.7194Z" fill="white"/>
</g>
<defs>
<clipPath id="clip0_102_122">
<rect width="166" height="166" fill="white"/>
</clipPath>
</defs>
</svg>
