<svg width="136" height="100" viewBox="0 0 136 100" fill="none" xmlns="http://www.w3.org/2000/svg">
<g clip-path="url(#clip0_102_119)">
<path d="M134.848 96.8305C134.848 98.2876 133.778 99.2655 132.512 99.2655V99.2566C131.209 99.2655 130.159 98.2875 130.159 96.8309C130.159 95.3747 131.209 94.3994 132.512 94.3994C133.779 94.3991 134.848 95.3743 134.848 96.8305ZM135.796 96.8305C135.796 94.8306 134.243 93.67 132.512 93.67C130.769 93.67 129.215 94.8306 129.215 96.8305C129.215 98.8289 130.769 99.9942 132.512 99.9942C134.243 99.9942 135.796 98.8289 135.796 96.8305ZM131.967 97.0979H132.318L133.133 98.5286H134.028L133.125 97.0376C133.591 97.0044 133.975 96.7826 133.975 96.1547C133.975 95.3743 133.437 95.1239 132.526 95.1239H131.208V98.5286H131.966L131.967 97.0979ZM131.967 96.5214V95.7019H132.494C132.78 95.7019 133.171 95.7251 133.171 96.0748C133.171 96.455 132.969 96.5214 132.631 96.5214H131.967ZM113.679 79.4119L117.774 90.6137H109.457L113.679 79.4119ZM109.293 75.0501L99.857 98.9591H106.52L108.013 94.7341H119.18L120.593 98.9591H127.826L118.32 75.047L109.293 75.0501ZM90.3483 98.968H97.1087V75.0428L90.3471 75.0412L90.3483 98.968ZM43.4163 75.0412L37.776 94.0038L32.3729 75.0428L25.0785 75.0412L32.7952 98.968H42.5346L50.3135 75.0412H43.4163ZM70.7428 80.2511H73.6487C77.8637 80.2511 80.5903 82.1436 80.5903 87.0548C80.5903 91.9668 77.8637 93.8597 73.6487 93.8597H70.7428V80.2511ZM64.0391 75.0412V98.968H74.9987C80.838 98.968 82.7452 97.9974 84.8069 95.8201C86.2631 94.2913 87.2051 90.9356 87.2051 87.2681C87.2051 83.9039 86.408 80.9049 85.0182 79.0364C82.5145 75.695 78.9073 75.0412 73.5235 75.0412H64.0391ZM0 75.008V98.968H6.81761V80.775L12.1001 80.7766C13.8493 80.7766 15.0961 81.2128 15.9384 82.1123C17.0067 83.2502 17.443 85.087 17.443 88.4473V98.968H24.0492V85.7299C24.0492 76.2819 18.0272 75.008 12.1349 75.008H0ZM53.1588 75.0412L53.1615 98.968H59.9188V75.0412H53.1588Z" fill="#F0F0F1"/>
<path d="M18.1686 27.4006C18.1686 27.4006 26.8636 14.5718 44.2246 13.2446V8.5903C24.9951 10.1346 8.34302 26.4212 8.34302 26.4212C8.34302 26.4212 17.7745 53.6854 44.2246 56.1822V51.235C24.8142 48.7931 18.1686 27.4006 18.1686 27.4006ZM44.2246 41.3963V45.9274C29.5547 43.3116 25.4827 28.0625 25.4827 28.0625C25.4827 28.0625 32.5263 20.2596 44.2246 18.9943V23.9658C44.2157 23.9658 44.2095 23.9631 44.2022 23.9631C38.0623 23.2262 33.2658 28.962 33.2658 28.962C33.2658 28.962 35.9542 38.6175 44.2246 41.3963ZM44.2246 0.00579834V8.5903C44.7891 8.54703 45.3536 8.51032 45.9212 8.49101C67.7831 7.75419 82.0276 26.4212 82.0276 26.4212C82.0276 26.4212 65.6673 46.3149 48.6227 46.3149C47.0606 46.3149 45.5982 46.17 44.2246 45.9266V51.235C45.4395 51.3911 46.663 51.4701 47.8878 51.4715C63.749 51.4715 75.2193 43.3711 86.3261 33.784C88.1675 35.2588 95.7065 38.8467 97.2563 40.4169C86.6958 49.2587 62.0841 56.3858 48.1309 56.3858C46.7859 56.3858 45.4942 56.3047 44.2246 56.1822V63.6412H104.512V0.00579834H44.2246ZM44.2246 18.9943V13.2446C44.7833 13.2056 45.3463 13.1758 45.9212 13.1577C61.6421 12.6639 71.956 26.6673 71.956 26.6673C71.956 26.6673 60.816 42.1386 48.8716 42.1386C47.1526 42.1386 45.6113 41.8623 44.2242 41.396V23.9654C50.3444 24.7049 51.5762 27.4084 55.2556 33.5421L63.4395 26.6418C63.4395 26.6418 57.4657 18.8072 47.3956 18.8072C46.3006 18.8069 45.2531 18.8841 44.2246 18.9943Z" fill="#77B900"/>
</g>
<defs>
<clipPath id="clip0_102_119">
<rect width="135.796" height="100" fill="white"/>
</clipPath>
</defs>
</svg>
