<svg width="165" height="100" viewBox="0 0 165 100" fill="none" xmlns="http://www.w3.org/2000/svg">
<g clip-path="url(#clip0_102_131)">
<path d="M80.0901 52.1175C80.2355 52.1453 80.3809 52.171 80.5258 52.1968L80.0901 52.1175ZM81.2787 52.3155C81.4479 52.3408 81.6172 52.3631 81.7869 52.3855L81.2787 52.3155ZM82.5354 52.4662C82.7008 52.4813 82.8652 52.4954 83.0305 52.5081L82.5354 52.4662ZM83.2075 52.5202C83.3471 52.5304 83.4867 52.5387 83.6263 52.546L83.2075 52.5202ZM83.8296 52.5567C83.9949 52.564 84.1603 52.5703 84.3256 52.5757L83.8296 52.5567ZM84.49 52.5776C84.8594 52.5874 85.229 52.5877 85.5984 52.5786L84.49 52.5776ZM85.7749 52.5757C85.9472 52.5705 86.1193 52.5638 86.2914 52.5557L85.7749 52.5757ZM86.4539 52.5479C86.6032 52.5397 86.7501 52.5304 86.8984 52.5202L86.4539 52.5479ZM87.0526 52.5095C87.214 52.4974 87.376 52.4838 87.5365 52.4687L87.0526 52.5095ZM88.3647 52.3763C88.4892 52.3617 88.6128 52.3456 88.7358 52.3262L88.3647 52.3763ZM111.056 10.6392C110.922 10.5671 110.785 10.5015 110.645 10.4428L111.056 10.6392ZM109.708 10.1544C109.536 10.1191 109.362 10.0925 109.188 10.0746L109.708 10.1544ZM21.44 28.0489C20.8414 27.4996 20.3865 26.8119 20.1152 26.0461C19.8944 25.4066 19.6084 24.6075 19.6084 23.9291C19.6225 20.87 21.4079 18.5978 23.3299 17.5458C24.2034 17.0682 24.5278 16.7404 24.661 16.5722C24.5971 16.5439 24.5289 16.5265 24.4592 16.5206C21.8432 16.5206 20.5018 15.5041 19.8433 14.6438C19.2193 13.8379 18.9008 12.7991 18.9008 11.663C18.9008 11.111 18.9786 10.5332 19.1318 9.94232C19.8691 8.72452 20.5694 9.05912 20.9984 9.68213C21.2717 10.0722 23.1446 11.3999 25.4523 11.6105C27.1317 11.77 28.0367 12.5914 28.5075 13.2475C29.0503 14.0072 29.2584 14.9225 29.2584 15.7011C29.2584 16.0197 29.2224 16.3188 29.1539 16.5848C28.901 17.611 27.8198 18.536 26.3141 19.7144L25.4601 20.4225C24.2097 21.5168 23.5215 22.7346 23.5215 23.7666C23.5215 24.0244 23.5668 24.2758 23.6538 24.5078C23.6898 24.6031 23.7331 24.6951 23.7841 24.7821C24.343 25.7281 25.9221 26.3214 28.2128 25.5199C29.2716 25.1527 31.3098 23.8697 32.5544 22.6359C34.0188 21.1749 35.9734 20.8243 37.8555 20.6754C39.4877 20.5524 40.4925 20.1521 41.2001 19.3565C43.2914 17.0001 45.3039 16.6689 47.1875 16.5289C47.9082 16.4734 47.9471 16.4219 48.041 16.2949C49.0794 14.9123 50.1459 14.1803 51.103 13.7543C51.8325 13.4299 52.4988 13.282 53.0445 13.1624L53.7069 12.9995L53.8723 12.9411C54.9208 12.6036 55.7325 12.3239 57.8656 10.8824L57.9566 10.825L57.9571 10.8241L58.0466 10.7681L58.0475 10.7676L58.1375 10.7146L58.139 10.7141L58.2289 10.6626L58.2304 10.6621L58.3209 10.6144L58.3238 10.6135L58.4133 10.5668L58.4162 10.5658L58.5061 10.522L58.51 10.5211L58.6005 10.4792L58.6039 10.4773L58.6949 10.4394L58.6987 10.4379L58.7892 10.4005L58.7941 10.3995L58.885 10.3654L58.8894 10.363L58.9794 10.3309L59.0752 10.2988L59.0815 10.2973L59.171 10.2687L59.1768 10.2672L59.2678 10.2409L59.2741 10.2395L59.3641 10.2147L59.3709 10.2127L59.4613 10.1913L59.4696 10.1894L59.5586 10.169L59.5659 10.167L59.6568 10.1485L59.6646 10.1466L59.7546 10.13L59.7629 10.1286L59.8528 10.1135L59.8611 10.1125L59.9501 10.0994L59.9593 10.0975L60.0488 10.0872L60.0581 10.0853L60.1461 10.0756L60.1558 10.0751L60.2448 10.0668L60.255 10.0659L60.3436 10.0595L60.3538 10.0586L60.4408 10.0532L60.451 10.0527L60.5391 10.0488L60.6373 10.0459H60.6475L60.7351 10.0449H60.844L60.9306 10.0459L60.9408 10.0464H60.951C61.0133 10.0479 61.0755 10.0517 61.1378 10.0552L61.2234 10.0605L61.2355 10.0615L61.3196 10.0678L61.3323 10.0688L61.4164 10.077L61.4296 10.0785L61.5132 10.0868L61.5268 10.0877L61.61 10.0979L61.6231 10.0999L61.7058 10.1101L61.7199 10.1125L61.8016 10.1247L61.8152 10.1271L61.8974 10.1398L61.912 10.1427L61.9923 10.1568L62.0073 10.1592L62.0871 10.1738L62.1017 10.1772C62.2291 10.2011 62.3546 10.2293 62.4776 10.2594L62.555 10.2789L62.5705 10.2832C62.6945 10.3153 62.8171 10.3494 62.9377 10.3854L63.0092 10.4077L63.0267 10.4131C63.266 10.4885 63.498 10.5736 63.7227 10.6636L63.7859 10.6898L63.8686 10.7239C68.4305 4.5264 75.6429 0.402692 83.8403 0.029667V0.0277216C84.2438 0.00957717 84.6478 0.000334396 85.0518 0C85.3188 0.000175744 85.5858 0.00422903 85.8528 0.0121586C85.9855 0.0165357 86.1183 0.0218855 86.2506 0.0272352H86.252C86.3834 0.0335577 86.5161 0.0398802 86.6479 0.048148C94.5802 0.524765 101.566 4.51959 106.065 10.4924C106.708 10.2691 107.407 10.1072 108.122 10.0586L108.141 10.0576L108.209 10.0532L108.279 10.0498L108.296 10.0488L108.315 10.0483L108.384 10.0464L108.402 10.0454L108.471 10.0449L108.49 10.0445L108.56 10.044H108.577L108.648 10.0445H108.665L108.752 10.0459L108.823 10.0488L108.839 10.0493L108.91 10.0527L108.926 10.0537L108.998 10.0586L109.011 10.0595L109.084 10.0654L109.098 10.0663L109.171 10.0736L109.184 10.0751C109.359 10.093 109.532 10.1196 109.704 10.1549L109.781 10.1704L109.791 10.1728L109.866 10.1908L109.877 10.1928L109.953 10.2122L109.963 10.2147L110.04 10.2351L110.048 10.2375L110.127 10.2594L110.134 10.2618L110.211 10.2857L110.22 10.2881L110.298 10.3139L110.305 10.3158L110.39 10.3455L110.469 10.3737L110.474 10.3761L110.553 10.4068L110.558 10.4087L110.638 10.4408L110.643 10.4433C110.781 10.5016 110.918 10.5663 111.054 10.6397L111.057 10.6412L111.137 10.684L111.138 10.685L111.218 10.7312L111.219 10.7317L111.3 10.7803L111.301 10.7808L111.38 10.8309L111.46 10.8829C112.93 11.8819 113.779 12.322 114.504 12.6094C114.83 12.7393 115.132 12.837 115.453 12.9416L115.622 13L116.291 13.1629C116.654 13.2426 117.068 13.3346 117.517 13.4814C118.64 13.8472 119.982 14.5572 121.284 16.2954C121.378 16.4224 121.42 16.4739 122.144 16.5294C124.026 16.6699 126.035 17.0006 128.135 19.357C128.837 20.1526 129.837 20.5524 131.469 20.6759C133.362 20.8247 135.31 21.1749 136.772 22.6364C138.018 23.8702 140.054 25.1532 141.115 25.5204C143.405 26.3219 144.992 25.7285 145.538 24.7826C145.657 24.5832 145.738 24.3639 145.779 24.1319C145.8 24.0115 145.811 23.8894 145.811 23.7671C145.811 22.7351 145.122 21.5173 143.875 20.423L143.72 20.2941L143.013 19.7149C141.513 18.5365 140.431 17.6115 140.171 16.5853C140.102 16.3193 140.072 16.0202 140.072 15.7016C140.072 14.9225 140.285 14.0077 140.817 13.248C141.292 12.5919 142.206 11.7705 143.875 11.611C146.195 11.4004 148.058 10.0727 148.33 9.68261C148.766 9.05961 149.46 8.725 150.194 9.94281C150.35 10.5337 150.427 11.1115 150.427 11.6635C150.427 12.8059 150.109 13.8384 149.485 14.6443C148.823 15.5046 147.486 16.5211 144.865 16.5211C144.81 16.5211 144.732 16.5469 144.668 16.5726C144.798 16.7414 145.122 17.0692 145.997 17.5463C147.919 18.5987 149.707 20.8709 149.723 23.9296C149.723 24.608 149.44 25.4066 149.212 26.0466C148.974 26.7179 148.596 27.331 148.103 27.8456C148.037 27.9147 147.967 27.9827 147.894 28.0494C146.811 29.0551 145.008 29.8445 142.003 29.665C141.687 29.6457 141.371 29.6171 141.056 29.5794C140.978 31.0953 140.562 32.8972 139.977 33.8062C139.799 34.0917 139.764 34.2833 139.764 34.3772C139.764 34.4166 139.768 34.4394 139.768 34.456C139.787 34.4623 141.101 35.238 141.101 35.238L141.313 35.3455C141.313 35.3455 141.437 35.4039 141.453 35.417C141.472 35.4102 141.907 35.3907 141.907 35.3907L141.993 35.3786L142.002 35.3776C142.824 35.2993 144.079 34.8971 144.613 36.3872C144.752 36.7826 144.837 37.127 144.918 37.4319C145.081 38.0554 145.22 38.5184 145.766 38.9391C145.766 38.9391 146.036 38.7076 146.342 38.4352C146.579 38.2262 146.811 38.012 147.038 37.7928C147.418 37.4032 148.122 37.6012 148.629 37.7928C149.143 37.9873 149.778 38.4294 150.227 38.6852C150.678 38.9386 150.927 39.2601 151.057 39.6438C151.193 40.0266 151.507 40.2799 151.985 40.5333C152.447 40.7959 153.11 41.6373 153.11 42.7729C153.11 42.947 153.129 43.0959 153.178 43.2539C153.212 43.3585 153.258 43.4674 153.32 43.5914C153.966 44.8934 153.448 45.549 153.074 45.8252C152.571 46.2017 151.684 46.3573 150.85 46.2211L150.857 46.4351L149.64 46.2727C149.168 46.2138 148.546 46.3344 148.174 46.4118L148.087 46.4351C147.22 46.6073 146.087 46.314 145.45 45.28C145.427 45.2416 145.404 45.2032 145.382 45.1623C145.057 44.5919 144.551 44.0622 144.303 43.9158C143.946 44.0141 143.381 44.1473 142.709 44.0788C142.086 44.016 141.366 43.7767 140.635 43.1708C140.514 43.0701 140.392 42.9587 140.271 42.8381C139.196 41.7599 137.778 41.5391 136.886 41.6757L136.355 41.7701C135.257 41.9685 133.887 42.2214 132.621 41.4491C132.306 41.257 131.852 41.0591 131.406 40.8708C130.257 40.3704 129.069 39.8544 128.907 38.7664C128.88 38.5724 128.669 38.2178 128.497 37.9358C128.345 37.6863 128.18 37.4134 128.052 37.1211C127.929 36.842 127.84 36.5448 127.832 36.2345C127.456 36.3313 127.067 36.371 126.679 36.3522C126.542 36.3453 126.405 36.3319 126.269 36.3119L125.77 36.2345C124.929 36.0911 123.168 35.8017 122.608 36.0064C121.491 36.4091 117.977 36.6037 117.014 36.3834C117.014 36.3834 116.659 36.3055 116.325 36.2345C116.004 36.5657 115.646 36.8765 115.27 37.1532C115.975 37.1917 116.595 37.1041 117.021 37.214L117.906 37.4475C118.189 37.3638 118.88 37.3735 119.272 37.409L120.309 37.4869L121.492 37.6007C122.062 37.715 122.667 37.9611 122.563 39.0777C122.524 39.422 122.331 39.9089 122.041 40.1948C121.882 40.3699 121.263 41.2662 121.128 41.5483L121.083 41.6363C120.843 42.1494 120.486 42.6207 119.446 42.6207C119.314 42.6189 119.182 42.6241 119.051 42.6363C119.019 42.7204 118.934 42.8765 118.934 42.8765C118.7 43.4086 118.362 44.1493 117.717 44.5778L117.544 44.7018C117.025 45.0719 116.162 45.6818 114.839 45.2017L114.384 45.0388C113.231 44.6235 111.488 44.0005 110.609 43.5195L110.485 43.4514C109.666 43.003 109.484 42.913 109.187 42.9548L109.021 42.9806C108.393 43.0686 107.208 43.2277 106.389 41.8698L106.314 41.7521C102.431 47.0824 96.5937 50.8978 89.8568 52.1433L89.8272 52.1496C89.5976 52.1915 89.3661 52.2304 89.1346 52.2668L89.0485 52.2795L88.7319 52.3262C88.6089 52.3447 88.4853 52.3612 88.3608 52.3768L88.1352 52.405L87.7792 52.4434L87.5326 52.4692C87.3721 52.4842 87.2101 52.4979 87.0487 52.51L86.8955 52.5202C86.7471 52.5304 86.6003 52.5402 86.451 52.5479L86.2885 52.5567C86.1164 52.565 85.9452 52.5713 85.772 52.5766L85.5965 52.5796C85.227 52.5888 84.8575 52.5884 84.4881 52.5786L84.3227 52.5766C84.1573 52.5713 83.992 52.565 83.8266 52.5577L83.6243 52.5465C83.4848 52.5387 83.3452 52.5314 83.2056 52.5207L83.0281 52.509C82.8629 52.4963 82.6979 52.4824 82.533 52.4672L82.2888 52.4419L81.9654 52.4069L81.785 52.386C81.6152 52.3651 81.4458 52.3416 81.2767 52.3155L81.072 52.2853L80.7102 52.2289L80.5239 52.1978C80.3785 52.172 80.2331 52.1467 80.0881 52.1185L79.7744 52.0558L79.6139 52.0232C79.3995 51.9765 79.1835 51.9303 78.9705 51.8787L78.9141 51.8656L78.579 51.7839L78.4068 51.7396C78.2069 51.6881 78.008 51.6327 77.8096 51.5772L77.7386 51.5563C71.8315 49.8521 66.7837 46.1321 63.3808 41.1909L62.9328 41.8727C62.1216 43.2306 60.9393 43.0711 60.3027 42.9835L60.1373 42.9577C59.8407 42.9159 59.653 43.0059 58.8412 43.4543L58.7109 43.5224C57.834 44.0034 56.0978 44.6264 54.9388 45.0417L54.4826 45.2047C53.1612 45.6847 52.2946 45.0738 51.7859 44.7047L51.6074 44.5807C50.961 44.1527 50.6264 43.412 50.3891 42.8794C50.3891 42.8794 50.3113 42.7233 50.2733 42.6392C50.1416 42.6271 50.0093 42.6219 49.877 42.6236C48.8474 42.6236 48.4802 42.1524 48.2433 41.6393L48.2015 41.5512C48.0619 41.2692 47.4516 40.3728 47.2828 40.1977C46.9973 39.9123 46.7945 39.4249 46.7624 39.0806C46.6554 37.964 47.2687 37.7179 47.8333 37.6036L49.0166 37.4898L50.0554 37.412C50.4416 37.3765 51.1332 37.3667 51.4153 37.4504L52.3014 37.2169C52.723 37.107 53.3494 37.1946 54.0483 37.1562C53.6768 36.8747 53.3253 36.5677 52.9964 36.2374C52.6584 36.3085 52.3072 36.3863 52.3072 36.3863C51.3409 36.6066 47.8333 36.412 46.7235 36.0094C46.1593 35.8046 44.3998 36.0935 43.555 36.2374L43.0482 36.3148C42.5312 36.3942 42.0034 36.3679 41.4968 36.2374C41.47 36.8731 41.1257 37.4504 40.8305 37.9387C40.6588 38.2208 40.4414 38.5753 40.4151 38.7694C40.2634 39.8573 39.0607 40.3733 37.9149 40.8738C37.4699 41.062 37.0224 41.2599 36.7048 41.452C35.4481 42.2243 34.0713 41.9714 32.9707 41.773L32.4377 41.6787C31.5511 41.542 30.1319 41.7628 29.0547 42.841C27.4074 44.4844 25.7684 44.123 25.0219 43.9188C24.7748 44.0651 24.2656 44.5948 23.9432 45.1653C23.3207 46.2955 22.1316 46.6165 21.2357 46.438L21.1457 46.4147C20.7781 46.3373 20.1638 46.2167 19.6935 46.2756L18.4689 46.438L18.482 46.224C17.6441 46.3602 16.7541 46.2041 16.2492 45.8281C15.8781 45.5519 15.3582 44.8963 16.0148 43.5944C16.167 43.2821 16.2191 43.0652 16.2191 42.7759C16.2191 41.6398 16.8761 40.7989 17.3372 40.5362C17.8206 40.2829 18.1387 40.0295 18.268 39.6467C18.395 39.263 18.644 38.9415 19.0963 38.6881C19.5437 38.4323 20.1803 37.9902 20.6905 37.7957C21.1997 37.6041 21.9035 37.4061 22.2872 37.7957C22.6738 38.1721 23.5595 38.9415 23.5595 38.9415C24.3721 38.3141 24.2943 37.5909 24.7155 36.3892C25.2422 34.899 26.5023 35.3012 27.3204 35.3795L27.4142 35.3927C27.4142 35.3927 27.8553 35.4121 27.8685 35.4189C27.8913 35.4058 28.0149 35.3474 28.0149 35.3474L28.2196 35.24C28.2196 35.24 29.5405 34.4642 29.5536 34.4579C29.5595 34.4419 29.5595 34.4185 29.5595 34.3791C29.5595 34.2853 29.5274 34.0936 29.3489 33.8082C28.7614 32.8987 28.3461 31.0973 28.2707 29.5814C28.0586 29.6066 27.8539 29.6276 27.6525 29.6436C24.4534 29.9004 22.5522 29.0911 21.44 28.0489Z" fill="#F8EE3F"/>
<path d="M29.3159 28.474C29.3159 28.474 29.0494 31.054 30.2118 33.3277C30.2118 33.3277 31.0731 34.5484 30.1787 35.3324L28.3982 36.3673C28.3982 36.3673 28.1589 36.5453 27.3647 36.485C27.3647 36.485 26.267 36.2132 25.9003 36.698C25.9003 36.698 25.5818 37.6304 25.183 38.3988C25.183 38.3988 24.3722 40.2615 23.0304 40.8582C23.0304 40.8582 21.9609 41.1033 21.6366 42.0308C21.6366 42.0308 21.2917 42.6815 20.6011 42.7102C20.6011 42.7102 20.0861 42.8736 19.7452 44.0209C19.7452 44.0209 19.5594 44.7631 19.5691 45.3321C19.5691 45.3321 20.4474 45.2168 21.0199 45.424C21.0199 45.424 22.4274 45.8967 23.0567 44.7373C23.0567 44.7373 24.2725 42.6553 25.1742 42.9685C25.1742 42.9685 26.9854 43.5745 28.2644 42.2526C28.2644 42.2526 30.0216 40.333 32.5034 40.7279C32.5034 40.7279 35.2989 41.294 36.1709 40.6491C36.1709 40.6491 37.9339 39.7275 38.5954 39.4989C38.5954 39.4989 39.4046 39.2611 39.4883 38.375C39.4883 38.375 39.9805 37.1285 40.3384 36.7131L39.0049 36.698C39.0049 36.698 37.7973 38.729 35.7454 39.3413C35.7454 39.3413 34.6234 39.7897 32.3711 39.4255C32.3711 39.4255 29.1374 38.693 26.2972 41.7604C26.2972 41.7604 25.9091 42.3211 25.3551 42.0969C25.3551 42.0969 26.9246 39.4206 30.3703 38.7864C30.3703 38.7864 31.4981 38.5466 32.4387 38.6993C32.4387 38.6993 37.0799 38.8355 39.232 34.2663C39.232 34.2663 38.999 30.3707 40.0267 29.4481C40.0267 29.4481 40.4235 29.3265 40.3442 30.0799C40.3442 30.0799 39.6381 34.1608 40.9643 34.9511C40.9643 34.9511 41.7342 35.5561 43.1587 35.3324C43.1587 35.3324 45.3181 34.8164 47.0733 35.1169C47.0733 35.1169 49.7725 35.7575 52.0919 35.4613C52.0919 35.4613 51.4898 34.5392 51.608 33.4366C51.608 33.4366 51.9401 32.6473 52.3209 33.155C52.3209 33.155 53.2134 36.1032 55.6524 36.9879C55.6524 36.9879 57.8307 37.7811 57.7952 40.544C57.7952 40.544 57.4616 40.9229 54.5732 41.9491C54.5732 41.9491 53.494 42.29 53.1463 41.4837C53.1463 41.4837 51.7534 38.5024 50.5409 38.5943L48.2643 38.7791C48.2643 38.7791 47.4877 38.978 48.0596 39.6005C48.0596 39.6005 48.8392 40.6369 49.1578 41.2556C49.1578 41.2556 49.2507 41.7842 49.9831 41.6719C49.9831 41.6719 50.9991 41.1685 51.572 43.0584C51.572 43.0584 52.0962 44.0034 52.9838 44.3054C52.9838 44.3054 53.814 44.5826 54.5931 44.1454C54.5931 44.1454 58.3531 42.7652 59.0077 42.2759C59.0077 42.2759 59.8208 41.8207 60.4657 42.0396C60.4657 42.0396 61.5936 42.3085 62.058 41.4185L63.2233 39.6156C63.2233 39.6156 63.4791 39.1716 63.4436 38.6138C63.4436 38.6138 63.5491 38.0613 63.0832 37.4995C63.0832 37.4995 62.6431 37.0341 62.5735 36.6971L61.7429 34.7449C61.7429 34.7449 61.4063 34.2235 61.0367 34.0091L59.9278 34.0903C59.9278 34.0903 60.6909 36.0405 61.2497 36.8352C61.2497 36.8352 62.006 37.9917 61.9676 38.7271C61.9676 38.7271 61.9175 39.2426 61.7142 39.4576C61.7142 39.4576 61.4584 39.8671 61.3553 40.066C61.3553 40.066 61.0192 40.7955 60.7463 40.9574C60.7463 40.9574 60.2746 41.2366 60.1598 41.2478C60.1598 41.2478 59.9546 41.3047 60.1068 40.937C60.1068 40.937 60.7284 39.6292 60.6875 38.9299C60.6875 38.9299 60.8081 38.2013 60.2926 37.7748C60.2926 37.7748 59.0845 35.8679 58.9114 35.2979C58.9114 35.2979 58.5325 34.5353 58.3307 34.4044C58.3307 34.4044 57.9085 33.8495 58.5899 33.5898C58.5899 33.5898 60.2872 33.2066 60.5912 32.9984C60.5912 32.9984 61.4073 32.7514 61.9374 31.0516C61.9374 31.0516 62.6674 29.0693 62.6567 27.8456C62.6567 27.8456 64.0875 30.6042 61.8056 33.4094C61.8056 33.4094 63.6114 33.9419 64.3584 33.4094C64.3584 33.4094 66.6078 33.0806 67.0421 32.961C67.0421 32.961 67.6077 32.8243 67.2848 33.2256C67.2848 33.2256 66.6063 34.1905 66.5489 34.8227C66.5489 34.8227 66.5051 35.3261 66.0927 35.6208C66.0927 35.6208 64.8141 36.5162 64.7018 37.3736C64.7018 37.3736 64.4285 38.1989 64.9931 38.0014C64.9931 38.0014 65.7586 37.6469 66.029 38.0039C66.029 38.0039 66.1083 38.0413 65.8131 38.3725C65.8131 38.3725 65.0451 39.0408 64.9878 39.9376C64.9878 39.9376 65.1298 40.9725 65.4011 41.3052C65.4011 41.3052 65.7469 41.7847 66.2936 41.6325C66.2936 41.6325 66.4385 41.5153 66.7002 41.5941C66.7002 41.5941 66.9706 41.5931 67.6768 41.3489C67.6768 41.3489 68.7472 41.0547 69.1051 40.9283C69.1051 40.9283 70.4679 40.4409 71.14 40.475C71.14 40.475 71.5772 40.4268 72.1346 40.5382C72.1346 40.5382 73.8387 40.7318 74.9743 39.4765C74.9743 39.4765 75.8386 38.7913 76.1318 39.4566C76.1318 39.4566 78.2051 42.2385 81.5609 41.5056C81.5609 41.5056 78.8908 40.4074 78.1983 38.9119C78.1983 38.9119 78.1059 37.642 76.7072 35.8786C76.7072 35.8786 76.2797 35.2935 76.6921 35.1413C76.6921 35.1413 76.9309 34.9628 77.4518 35.4856C77.4518 35.4856 78.7804 36.7603 79.2605 37.927C79.2605 37.927 80.9106 40.4205 83.2889 39.5825C83.2889 39.5825 81.4218 38.8623 80.5444 37.519C80.5444 37.519 80.0021 35.701 78.1793 34.3485C78.1793 34.3485 78.1078 32.3054 77.2577 31.1571C77.2577 31.1571 76.8244 29.2385 76.7077 28.7901C76.7077 28.7901 76.249 27.1049 76.252 26.6395C76.252 26.6395 76.4037 24.4383 74.9845 22.7249C74.9845 22.7249 74.0337 20.8919 72.5528 19.6147C72.5528 19.6147 71.4274 18.2243 70.5904 17.3727C70.5904 17.3727 69.4893 16.0819 67.0888 14.3977C67.0888 14.3977 66.0018 13.6074 65.2056 12.7578C65.2056 12.7578 60.971 9.70987 57.9119 12.1547C57.9119 12.1547 55.7993 13.5919 54.0348 14.0369C54.0348 14.0369 50.4086 14.459 48.8625 16.9758C48.8625 16.9758 48.7303 17.4408 47.2688 17.6178C47.2688 17.6178 44.0584 17.2302 41.6948 20.3875C41.6948 20.3875 40.5967 21.4594 38.4227 21.7201C38.4227 21.7201 34.8773 21.3573 32.5691 24.0755C32.5691 24.0755 26.7446 29.1563 23.2716 25.8613C23.2716 25.8613 21.4722 24.1577 23.5294 21.0728C23.5294 21.0728 24.8343 19.498 27.0603 17.8527C27.0603 17.8527 28.8661 16.5804 28.0383 14.6025C28.0383 14.6025 27.6011 12.6912 24.8946 12.6406C24.8946 12.6406 21.4984 11.9845 20.125 10.2697C20.125 10.2697 18.5916 15.6705 24.6101 15.5805C24.6101 15.5805 26.1785 15.8125 25.6309 17.0576C25.6309 17.0576 24.862 18.1226 23.83 18.5103C23.83 18.5103 22.0144 19.3045 21.194 21.9482C21.194 21.9482 19.3605 26.5763 23.8339 28.3626C25.5555 28.9574 27.5442 28.7823 29.3159 28.474ZM20.7033 39.3797C20.9459 39.1769 21.3015 39.0626 21.6171 39.1366C22.3291 39.2898 21.8982 39.9065 21.8982 39.9065C21.6098 40.4458 20.6687 41.3558 20.6687 41.3558C19.8317 41.9827 19.1688 41.2361 19.1688 41.2361C18.5488 40.6248 19.3556 40.3291 19.3556 40.3291C19.8249 40.1384 20.7033 39.3797 20.7033 39.3797ZM18.9087 42.2725C18.9087 42.2725 19.1688 42.4646 19.0298 42.844C19.0298 42.844 18.3654 44.6624 18.3965 45.2728C18.3965 45.2728 16.9263 45.5354 16.7225 44.8098C16.7225 44.8098 16.6831 44.5296 16.9229 44.1235C16.9229 44.1235 17.1724 43.7447 17.2371 43.0516C17.2371 43.0516 17.2152 41.3076 18.345 41.7696C18.5692 41.8951 18.7462 42.0775 18.9087 42.2725ZM70.7285 38.5821C70.4698 38.5758 70.4042 38.481 70.4353 38.196C70.6089 37.4037 71.2441 37.0618 71.2441 37.0618C72.4356 36.3498 72.5805 37.0628 72.5805 37.0628C72.7989 38.3346 71.7936 38.4946 71.7936 38.4946C71.5928 38.5637 70.7285 38.5821 70.7285 38.5821ZM74.3231 32.9026C74.345 32.3059 74.3956 30.9796 73.7891 30.5059C73.5654 30.3279 72.6802 29.3586 72.6802 29.3586C72.5455 29.1237 72.4419 29.1091 72.4419 29.1091C72.2596 29.0916 72.0242 29.5157 72.0242 29.5157C71.3939 30.7321 70.765 30.5837 70.765 30.5837C70.7597 30.362 70.908 30.1144 70.908 30.1144C71.2123 29.5235 71.5136 28.9311 71.8121 28.3373C71.904 28.1262 71.9887 27.8451 71.9887 27.8451C72.5971 26.9021 73.1705 27.62 73.1705 27.62C73.4263 28.1194 74.7905 29.7467 74.7905 29.7467C75.093 30.1066 75.1222 30.4933 75.1222 30.4933C75.4383 32.7222 74.3231 32.9026 74.3231 32.9026ZM61.7584 19.4474C61.5722 19.1124 61.649 18.7705 61.8362 18.4446C62.2584 17.7978 62.6528 18.5034 62.6528 18.5034C64.1104 20.5354 63.0341 23.5775 63.0341 23.5775C62.8843 20.7776 61.7584 19.4474 61.7584 19.4474ZM140.017 28.474C140.017 28.474 140.284 31.054 139.122 33.3277C139.122 33.3277 138.26 34.5484 139.155 35.3324L140.936 36.3673C140.936 36.3673 141.174 36.5453 141.969 36.485C141.969 36.485 143.066 36.2132 143.433 36.698C143.433 36.698 143.752 37.6304 144.15 38.3988C144.15 38.3988 144.962 40.2615 146.304 40.8582C146.304 40.8582 147.373 41.1033 147.696 42.0308C147.696 42.0308 148.042 42.6815 148.732 42.7102C148.732 42.7102 149.248 42.8736 149.588 44.0209C149.588 44.0209 149.774 44.7631 149.765 45.3321C149.765 45.3321 148.886 45.2168 148.313 45.424C148.313 45.424 146.906 45.8967 146.277 44.7373C146.277 44.7373 145.061 42.6553 144.16 42.9685C144.16 42.9685 142.349 43.5745 141.069 42.2526C141.069 42.2526 139.313 40.333 136.83 40.7279C136.83 40.7279 134.036 41.294 133.163 40.6491C133.163 40.6491 131.4 39.7275 130.739 39.4989C130.739 39.4989 129.929 39.2611 129.847 38.375C129.847 38.375 129.354 37.1285 128.996 36.7131L130.329 36.698C130.329 36.698 131.536 38.729 133.588 39.3413C133.588 39.3413 134.711 39.7897 136.962 39.4255C136.962 39.4255 140.196 38.693 143.037 41.7604C143.037 41.7604 143.425 42.3211 143.978 42.0969C143.978 42.0969 142.41 39.4206 138.964 38.7864C138.964 38.7864 137.836 38.5466 136.895 38.6993C136.895 38.6993 132.253 38.8355 130.1 34.2663C130.1 34.2663 130.334 30.3707 129.307 29.4481C129.307 29.4481 128.911 29.3265 128.989 30.0799C128.989 30.0799 129.694 34.1608 128.369 34.9511C128.369 34.9511 127.599 35.5561 126.174 35.3324C126.174 35.3324 124.015 34.8164 122.261 35.1169C122.261 35.1169 119.56 35.7575 117.241 35.4613C117.241 35.4613 117.844 34.5392 117.725 33.4366C117.725 33.4366 117.393 32.6473 117.012 33.155C117.012 33.155 116.119 36.1032 113.68 36.9879C113.68 36.9879 111.502 37.7811 111.537 40.544C111.537 40.544 111.872 40.9229 114.761 41.9491C114.761 41.9491 115.84 42.29 116.188 41.4837C116.188 41.4837 117.579 38.5024 118.792 38.5943L121.07 38.7791C121.07 38.7791 121.846 38.978 121.274 39.6005C121.274 39.6005 120.495 40.6369 120.176 41.2556C120.176 41.2556 120.084 41.7842 119.351 41.6719C119.351 41.6719 118.335 41.1685 117.761 43.0584C117.761 43.0584 117.238 44.0034 116.35 44.3054C116.35 44.3054 115.519 44.5826 114.741 44.1454C114.741 44.1454 110.981 42.7652 110.327 42.2759C110.327 42.2759 109.513 41.8207 108.869 42.0396C108.869 42.0396 107.742 42.3085 107.277 41.4185L106.112 39.6156C106.112 39.6156 105.855 39.1716 105.891 38.6138C105.891 38.6138 105.785 38.0613 106.252 37.4995C106.252 37.4995 106.692 37.0341 106.761 36.6971L107.592 34.7449C107.592 34.7449 107.929 34.2235 108.298 34.0091L109.408 34.0903C109.408 34.0903 108.644 36.0405 108.085 36.8352C108.085 36.8352 107.328 37.9917 107.367 38.7271C107.367 38.7271 107.417 39.2426 107.62 39.4576C107.62 39.4576 107.876 39.8671 107.98 40.066C107.98 40.066 108.314 40.7955 108.588 40.9574C108.588 40.9574 109.059 41.2366 109.174 41.2478C109.174 41.2478 109.38 41.3047 109.226 40.937C109.226 40.937 108.606 39.6292 108.646 38.9299C108.646 38.9299 108.526 38.2013 109.041 37.7748C109.041 37.7748 110.25 35.8679 110.424 35.2979C110.424 35.2979 110.801 34.5353 111.004 34.4044C111.004 34.4044 111.426 33.8495 110.744 33.5898C110.744 33.5898 109.048 33.2066 108.744 32.9984C108.744 32.9984 107.927 32.7514 107.397 31.0516C107.397 31.0516 106.667 29.0693 106.678 27.8456C106.678 27.8456 105.247 30.6042 107.529 33.4094C107.529 33.4094 105.723 33.9419 104.976 33.4094C104.976 33.4094 102.728 33.0806 102.292 32.961C102.292 32.961 101.728 32.8243 102.05 33.2256C102.05 33.2256 102.728 34.1905 102.786 34.8227C102.786 34.8227 102.829 35.3261 103.242 35.6208C103.242 35.6208 104.521 36.5162 104.632 37.3736C104.632 37.3736 104.906 38.1989 104.341 38.0014C104.341 38.0014 103.576 37.6469 103.305 38.0039C103.305 38.0039 103.226 38.0413 103.521 38.3725C103.521 38.3725 104.289 39.0408 104.346 39.9376C104.346 39.9376 104.204 40.9725 103.932 41.3052C103.932 41.3052 103.587 41.7847 103.04 41.6325C103.04 41.6325 102.896 41.5153 102.633 41.5941C102.633 41.5941 102.363 41.5931 101.657 41.3489C101.657 41.3489 100.586 41.0547 100.228 40.9283C100.228 40.9283 98.8655 40.4409 98.1928 40.475C98.1928 40.475 97.7556 40.4268 97.1983 40.5382C97.1983 40.5382 95.4936 40.7318 94.358 39.4765C94.358 39.4765 93.4938 38.7913 93.2015 39.4566C93.2015 39.4566 91.1277 42.2385 87.7715 41.5056C87.7715 41.5056 90.443 40.4074 91.135 38.9119C91.135 38.9119 91.2265 37.642 92.6252 35.8786C92.6252 35.8786 93.0522 35.2935 92.6398 35.1413C92.6398 35.1413 92.4015 34.9628 91.8801 35.4856C91.8801 35.4856 90.5529 36.7603 90.0724 37.927C90.0724 37.927 88.4212 40.4205 86.044 39.5825C86.044 39.5825 87.9101 38.8623 88.7875 37.519C88.7875 37.519 89.3297 35.701 91.154 34.3485C91.154 34.3485 91.225 32.3054 92.0756 31.1571C92.0756 31.1571 92.5094 29.2385 92.6252 28.7901C92.6252 28.7901 93.0833 27.1049 93.0804 26.6395C93.0804 26.6395 92.9287 24.4383 94.3483 22.7249C94.3483 22.7249 95.2986 20.8919 96.781 19.6147C96.781 19.6147 97.9059 18.2243 98.7424 17.3727C98.7424 17.3727 99.844 16.0819 102.245 14.3977C102.245 14.3977 103.331 13.6074 104.127 12.7578C104.127 12.7578 108.361 9.70987 111.421 12.1547C111.421 12.1547 113.534 13.5919 115.299 14.0369C115.299 14.0369 118.924 14.459 120.469 16.9758C120.469 16.9758 120.602 17.4408 122.063 17.6178C122.063 17.6178 125.273 17.2302 127.638 20.3875C127.638 20.3875 128.736 21.4594 130.91 21.7201C130.91 21.7201 134.454 21.3573 136.762 24.0755C136.762 24.0755 142.587 29.1563 146.06 25.8613C146.06 25.8613 147.859 24.1577 145.802 21.0728C145.802 21.0728 144.498 19.498 142.272 17.8527C142.272 17.8527 140.465 16.5804 141.294 14.6025C141.294 14.6025 141.731 12.6912 144.437 12.6406C144.437 12.6406 147.833 11.9845 149.206 10.2697C149.206 10.2697 150.741 15.6705 144.721 15.5805C144.721 15.5805 143.152 15.8125 143.701 17.0576C143.701 17.0576 144.469 18.1226 145.501 18.5103C145.501 18.5103 147.317 19.3045 148.138 21.9482C148.138 21.9482 149.972 26.5763 145.497 28.3626C143.777 28.9574 141.789 28.7823 140.017 28.474ZM148.631 39.3797C148.387 39.1769 148.032 39.0626 147.717 39.1366C147.004 39.2898 147.436 39.9065 147.436 39.9065C147.725 40.4458 148.666 41.3558 148.666 41.3558C149.504 41.9827 150.165 41.2361 150.165 41.2361C150.785 40.6248 149.977 40.3291 149.977 40.3291C149.509 40.1384 148.631 39.3797 148.631 39.3797ZM150.424 42.2725C150.424 42.2725 150.165 42.4646 150.303 42.844C150.303 42.844 150.967 44.6624 150.937 45.2728C150.937 45.2728 152.408 45.5354 152.61 44.8098C152.61 44.8098 152.65 44.5296 152.41 44.1235C152.41 44.1235 152.161 43.7447 152.096 43.0516C152.096 43.0516 152.119 41.3076 150.989 41.7696C150.764 41.8951 150.587 42.0775 150.424 42.2725ZM98.6043 38.5821C98.8635 38.5758 98.9302 38.481 98.898 38.196C98.7239 37.4037 98.0897 37.0618 98.0897 37.0618C96.8982 36.3498 96.7528 37.0628 96.7528 37.0628C96.5354 38.3346 97.5402 38.4946 97.5402 38.4946C97.741 38.5637 98.6043 38.5821 98.6043 38.5821ZM95.0107 32.9026C94.9883 32.3059 94.9373 30.9796 95.5447 30.5059C95.7694 30.3279 96.6536 29.3586 96.6536 29.3586C96.7883 29.1237 96.8919 29.1091 96.8919 29.1091C97.0733 29.0916 97.3101 29.5157 97.3101 29.5157C97.9395 30.7321 98.5693 30.5837 98.5693 30.5837C98.5741 30.362 98.4248 30.1144 98.4248 30.1144C98.1207 29.5235 97.8195 28.9312 97.5212 28.3373C97.4546 28.1761 97.3957 28.0119 97.3447 27.8451C96.7363 26.9021 96.1633 27.62 96.1633 27.62C95.9075 28.1194 94.5438 29.7467 94.5438 29.7467C94.3634 29.9584 94.2477 30.2176 94.2107 30.4933C93.896 32.7222 95.0107 32.9026 95.0107 32.9026ZM107.575 19.4474C107.761 19.1124 107.684 18.7705 107.497 18.4446C107.075 17.7978 106.681 18.5034 106.681 18.5034C105.223 20.5354 106.3 23.5775 106.3 23.5775C106.449 20.7776 107.575 19.4474 107.575 19.4474ZM0.0273438 61.5551V98.8289H7.54865V68.6688H11.0921C11.0921 68.6688 16.6238 68.4198 16.6238 73.4554C16.6238 78.491 11.7127 78.3655 11.7127 78.3655H9.90984V86.9451L17.4326 98.8299H26.2583L15.7537 83.5893C15.7537 83.5893 24.3941 82.8433 24.3941 73.4564C24.3941 64.0709 17.8669 61.5565 9.16525 61.5565L0.0273438 61.5551ZM109.993 78.9895C109.993 78.9895 113.286 76.4274 113.286 71.5723C113.286 66.7147 109.758 62.3356 102.246 62.3356H89.6653V98.8294H105.161C105.161 98.8294 116.268 98.7034 116.268 88.6668C116.268 82.8404 114.006 80.609 109.993 78.9895ZM103.931 92.4778H97.1876V68.699H100.792C100.792 68.699 105.69 68.3313 105.69 72.6048C105.69 76.8783 101.794 76.5014 101.794 76.5014H99.5493V82.9075H103.93C105.078 82.9075 108.736 83.4643 108.736 87.6741C108.736 91.883 103.931 92.4778 103.931 92.4778ZM157.422 60.8221H164.446V98.8294H157.422V60.8221ZM145.332 60.8221H152.449V98.8294H145.332V60.8221ZM118.385 76.5646H125.594V89.3068C125.594 89.3068 125.845 93.5978 129.884 93.5978C133.924 93.5978 133.864 89.3068 133.864 89.3068V76.6249H141.135V89.7435C141.135 89.7435 142.068 100 130.07 100C118.074 100 118.385 90.9866 118.385 89.3705V76.5646ZM70.5826 60.8221V78.0572C70.5826 78.0572 67.1014 75.3847 63.1207 75.3847C59.1438 75.3847 52.4304 78.1817 52.4304 87.0078C52.4304 95.8345 58.1498 99.1932 63.0599 99.1932C67.9715 99.1932 70.7067 95.96 70.7067 95.96V98.8304H77.7917V60.8226L70.5826 60.8221ZM65.1113 92.9743C64.7378 92.9743 60.0757 93.037 60.0757 87.3186C60.0757 81.5987 65.1726 81.4125 65.1726 81.4125C65.1726 81.4125 70.8924 81.5987 70.8924 87.1936C70.8924 92.7885 65.4838 92.9743 65.1113 92.9743ZM38.2569 75.3838C50.3162 75.3838 49.8187 87.1328 49.8187 87.1328V88.9965H33.4707C33.4707 91.6685 35.7079 93.9694 38.7544 93.9694C41.7999 93.9694 43.3542 91.0479 43.3542 91.0479L49.1344 93.9066C46.462 97.9486 42.8567 99.5633 38.8166 99.5633C26.2593 99.5633 26.0107 89.121 26.0107 87.8161C26.0107 86.5098 26.1985 75.3838 38.2569 75.3838ZM33.5943 84.7065H42.5469C42.5469 84.7065 42.1739 80.4811 38.1333 80.4811C34.0928 80.4806 33.5943 84.7065 33.5943 84.7065Z" fill="#CC2729"/>
</g>
<defs>
<clipPath id="clip0_102_131">
<rect width="164.474" height="100" fill="white"/>
</clipPath>
</defs>
</svg>
